<?xml version="1.0" encoding="iso-8859-1"?>
<!-- Generator: Adobe Illustrator 19.0.0, SVG Export Plug-In . SVG Version: 6.00 Build 0)  -->
<svg version="1.1" id="Capa_1" xmlns="http://www.w3.org/2000/svg" xmlns:xlink="http://www.w3.org/1999/xlink" x="0px" y="0px"
	 viewBox="0 0 511.998 511.998" style="enable-background:new 0 0 511.998 511.998;" xml:space="preserve">
<path id="SVGCleanerId_0" style="fill:#80D3AE;" d="M169.941,108.892C144,82.952,153.677,59.294,134.312,34.325
	c-2.665-3.436-0.92-8.488,3.293-9.56c45.681-11.624,77.401-1.038,97.45,19.012c18.98,18.981,19.791,48.943,1.809,66.924
	C218.884,128.682,188.921,127.872,169.941,108.892z"/>
<g>
	<path id="SVGCleanerId_0_1_" style="fill:#80D3AE;" d="M169.941,108.892C144,82.952,153.677,59.294,134.312,34.325
		c-2.665-3.436-0.92-8.488,3.293-9.56c45.681-11.624,77.401-1.038,97.45,19.012c18.98,18.981,19.791,48.943,1.809,66.924
		C218.884,128.682,188.921,127.872,169.941,108.892z"/>
</g>
<path style="fill:#A67E74;" d="M256,145.164c-12.051,0-21.82-9.769-21.82-21.82c0-26.66,19.776-88.792,57.579-112.499
	c10.21-6.404,23.677-3.316,30.078,6.893c6.403,10.209,3.316,23.676-6.893,30.078c-20.316,12.741-37.125,57.873-37.125,75.528
	C277.819,135.395,268.05,145.164,256,145.164z"/>
<path style="fill:#946450;" d="M277.819,123.344c0-8.63,4.023-23.824,10.501-38.59c-5.347,0.736-10.26,1.837-14.967,3.312
	c-10.737,3.364-22.132,3.533-32.938,0.518c-4.129,13.643-6.237,26.084-6.237,34.76c0,12.051,9.768,21.82,21.82,21.82
	C268.05,145.164,277.819,135.395,277.819,123.344z"/>
<path style="fill:#F5E6AB;" d="M366.298,155.278H145.701l30.136,83.443c15.391,42.615,17.425,88.91,5.833,132.71l-21.603,81.622
	h191.867l-21.603-81.622c-11.593-43.801-9.558-90.095,5.832-132.71L366.298,155.278z"/>
<path style="fill:#F2C55A;" d="M145.701,155.278l30.136,83.443c15.391,42.615,17.425,88.91,5.833,132.71l-21.603,81.622h119.224
	c-85.112-42.087-71.892-174.717-63.673-241.516c1.296-10.53,11.703-17.37,21.905-14.459c4.228,1.206,8.198,2.69,11.808,4.473
	c4.227,2.087,9.187,2.042,13.417-0.038c23.552-11.585,62.394-10.508,87.785-2.575l15.768-43.659H145.701z"/>
<g>
	<path style="fill:#A67E74;" d="M281.118,327.615L281.118,327.615c-8.113,0-14.43-7.043-13.551-15.108l2.372-21.766
		c0.622-5.705,5.44-10.027,11.179-10.027l0,0c5.739,0,10.557,4.322,11.179,10.027l2.372,21.766
		C295.548,320.572,289.231,327.615,281.118,327.615z"/>
	<path style="fill:#A67E74;" d="M230.881,327.615L230.881,327.615c-8.113,0-14.43-7.043-13.551-15.108l2.372-21.766
		c0.622-5.705,5.44-10.027,11.179-10.027l0,0c5.739,0,10.557,4.322,11.179,10.027l2.372,21.766
		C245.311,320.572,238.994,327.615,230.881,327.615z"/>
</g>
<path style="fill:#EA7786;" d="M238.645,109.286c11.325,3.549,23.384,3.549,34.708,0c14.417-4.517,30.689-5.597,55.834-3.068
	c29.05,2.922,64.819,18.806,94.916,37.312c7.378,4.536,4.584,15.84-4.054,16.472c-18.019,1.317-37.936,5.452-50.416,11.65
	c-6.247,3.102-13.489,3.61-20.169,1.603c-24.019-7.219-59.387-8.406-82.801,1.145c-6.859,2.798-14.471,2.798-21.33,0
	c-23.414-9.551-58.782-8.364-82.801-1.145c-6.68,2.008-13.922,1.499-20.169-1.603c-12.48-6.198-32.396-10.332-50.416-11.65
	c-8.637-0.632-11.431-11.935-4.054-16.472c30.098-18.507,65.866-34.39,94.916-37.312
	C207.956,103.689,224.229,104.769,238.645,109.286z"/>
<path style="fill:#E35968;" d="M274.169,171.817c-24.019-11.534-34.904-40.068-23.519-60.128c-4.049-0.376-8.072-1.171-12.005-2.403
	c-14.417-4.517-30.689-5.598-55.834-3.068c-29.05,2.922-64.818,18.806-94.916,37.312c-7.377,4.536-4.583,15.84,4.054,16.472
	c18.019,1.317,37.936,5.452,50.416,11.65c6.247,3.102,13.489,3.61,20.169,1.603c24.02-7.219,59.387-8.406,82.801,1.145
	c6.859,2.798,14.471,2.798,21.33,0C269.048,173.427,271.561,172.572,274.169,171.817z"/>
<path style="fill:#EA7786;" d="M246.366,501.34c6.174-2.457,13.094-2.457,19.268,0c11.569,4.603,24.164,3.561,44.78,0.772
	c22.236-3.009,49.765-19.754,72.538-38.956c5.668-4.779,2.761-14.093-4.62-14.792c-12.669-1.2-26.661-4.935-36.072-10.564
	c-5.878-3.516-13.016-3.989-19.472-1.7c-16.477,5.842-38.874,6.795-55.24-0.39c-7.394-3.246-15.704-3.246-23.098,0
	c-16.367,7.185-38.763,6.232-55.24,0.39c-6.456-2.289-13.594-1.815-19.472,1.7c-9.411,5.629-23.404,9.364-36.071,10.564
	c-7.381,0.699-10.288,10.013-4.62,14.792c22.773,19.203,50.302,35.948,72.538,38.956
	C222.202,504.901,234.797,505.943,246.366,501.34z"/>
<path style="fill:#E35968;" d="M268.24,435.985c-0.228-0.096-0.466-0.177-0.692-0.276c-7.394-3.246-15.704-3.246-23.098,0
	c-16.367,7.185-38.763,6.232-55.24,0.39c-6.456-2.289-13.594-1.815-19.472,1.7c-9.411,5.629-23.404,9.364-36.071,10.564
	c-7.381,0.699-10.288,10.013-4.62,14.792c22.773,19.203,50.302,35.947,72.538,38.956c20.618,2.79,33.212,3.832,44.78-0.772
	c6.174-2.457,13.094-2.457,19.268,0c11.569,4.603,24.164,3.561,44.78,0.772c8.337-1.128,17.419-4.188,26.715-8.584
	C288.992,487.883,267.802,456.06,268.24,435.985z"/>
<path d="M428.032,137.143c-35.238-21.669-70.992-35.659-98.093-38.386c-15.42-1.551-27.938-1.786-38.912-0.646
	c7.687-22.058,19.45-38.64,27.902-43.94c6.636-4.161,11.253-10.656,13.003-18.291c1.75-7.634,0.422-15.492-3.739-22.126
	c-4.161-6.635-10.656-11.253-18.29-13.002c-7.637-1.75-15.493-0.422-22.127,3.74c-15.821,9.921-28.976,26.324-38.996,44.618
	c-2.368-3.831-5.19-7.404-8.42-10.635C223.05,21.168,190.855,3.481,135.755,17.498c-4.44,1.13-7.98,4.394-9.472,8.73
	c-1.488,4.333-0.704,9.078,2.101,12.695c7.774,10.022,10.348,19.991,13.072,30.545c2.75,10.651,5.797,22.429,14.532,34.576
	c-22.128,6.391-47.2,17.837-72.021,33.099c-6.177,3.798-9.059,10.802-7.342,17.842c1.722,7.061,7.523,11.967,14.777,12.497
	c18.595,1.36,36.844,5.532,47.627,10.887c2.575,1.279,5.28,2.214,8.052,2.811l9.552,26.449c1.103,3.054,3.983,4.954,7.054,4.954
	c0.846,0,1.706-0.144,2.548-0.448c3.895-1.407,5.913-5.706,4.506-9.602l-7.808-21.618c0.588-0.145,1.175-0.302,1.759-0.478
	c21.63-6.501,55.3-8.276,77.81,0.907c4.353,1.775,8.926,2.663,13.498,2.663c4.573,0,9.147-0.888,13.498-2.663
	c22.51-9.183,56.182-7.407,77.81-0.907c0.584,0.176,1.171,0.333,1.759,0.478l-19.956,55.258
	c-15.983,44.253-18.067,91.69-6.029,137.177l14.449,54.594c-5.588-1.266-11.557-0.931-17.248,1.087
	c-16.309,5.782-36.287,5.706-49.719-0.189c-9.254-4.063-19.871-4.064-29.127,0c-13.431,5.895-33.412,5.97-49.719,0.189
	c-5.69-2.017-11.659-2.352-17.248-1.086l14.449-54.595c12.039-45.485,9.954-92.921-6.028-137.177
	c-1.406-3.896-5.704-5.913-9.602-4.507c-3.895,1.407-5.913,5.706-4.506,9.602c14.941,41.374,16.89,85.721,5.636,128.244
	l-17.475,66.028c-7.054,2.623-15.555,4.558-23.985,5.357c-6.376,0.604-11.735,4.957-13.652,11.091
	c-1.919,6.137,0.007,12.771,4.905,16.901c38.657,32.6,66.284,39.291,76.367,40.655c10.355,1.401,19.166,2.455,27.108,2.455
	c7.773,0,14.715-1.01,21.451-3.69c4.426-1.761,9.297-1.761,13.723,0c13.621,5.42,28.07,4.008,48.56,1.235
	c11.146-1.508,23.815-6.118,37.653-13.701c3.632-1.991,4.963-6.549,2.973-10.182c-1.99-3.632-6.547-4.962-10.182-2.973
	c-12.22,6.696-23.14,10.73-32.457,11.991c-21.17,2.865-31.546,3.455-41.003-0.308c-7.999-3.183-16.812-3.183-24.813,0
	c-9.457,3.763-19.834,3.172-41.002,0.308c-18.292-2.475-43.978-16.403-68.709-37.258c-0.144-0.121-0.442-0.373-0.259-0.958
	c0.182-0.581,0.565-0.617,0.75-0.634c14.755-1.397,29.415-5.731,39.215-11.594c3.815-2.282,8.594-2.671,13.116-1.068
	c19.965,7.08,43.814,6.847,60.761-0.591c5.504-2.416,11.566-2.416,17.068,0c16.946,7.438,40.797,7.67,60.761,0.591
	c4.522-1.603,9.303-1.213,13.116,1.068c9.803,5.862,24.463,10.196,39.215,11.594c0.185,0.017,0.569,0.054,0.751,0.634
	c0.183,0.585-0.115,0.837-0.258,0.958c-2.465,2.078-4.994,4.131-7.518,6.103c-3.264,2.55-3.842,7.264-1.292,10.528
	c2.552,3.263,7.265,3.842,10.528,1.292c2.669-2.086,5.344-4.257,7.95-6.455c4.898-4.131,6.824-10.766,4.905-16.902
	c-1.918-6.133-7.277-10.487-13.653-11.091c-8.429-0.798-16.93-2.733-23.985-5.356l-17.475-66.028
	c-11.254-42.525-9.305-86.872,5.637-128.244l21.701-60.088c2.772-0.597,5.477-1.532,8.052-2.811
	c10.783-5.355,29.033-9.527,47.627-10.887c7.255-0.53,13.056-5.436,14.777-12.497C437.091,147.944,434.209,140.941,428.032,137.143z
	 M295.745,17.198c3.24-2.032,7.077-2.68,10.806-1.827c3.728,0.855,6.901,3.11,8.934,6.352c2.032,3.24,2.681,7.078,1.826,10.806
	c-0.854,3.728-3.109,6.901-6.351,8.933c-10.372,6.504-18.622,19.042-23.716,28.414c-5.211,9.587-9.819,20.778-12.933,31.318
	c-1.076,0.296-2.143,0.606-3.199,0.937c-8.737,2.737-17.915,3.05-26.755,0.95C250.491,75.796,267.819,34.71,295.745,17.198z
	 M155.981,65.716c-2.844-11.012-5.779-22.382-14.405-34.208c37.24-8.973,67.692-2.913,88.177,17.573
	c4.933,4.933,8.571,10.925,10.634,17.44c-4.681,11.097-8.244,22.35-10.591,32.863c-2.808-0.526-5.707-0.947-8.721-1.263
	c1.518-0.004,3.048-0.466,4.371-1.423c3.355-2.428,4.106-7.117,1.679-10.473c-14.803-20.453-42.353-43.179-54.527-47.438
	c-3.909-1.37-8.188,0.693-9.556,4.602c-1.368,3.91,0.692,8.188,4.602,9.556c7.737,2.707,33.044,22.336,47.328,42.074
	c1.173,1.621,2.876,2.623,4.699,2.963c-10.662-0.99-22.796-0.715-37.609,0.775c-3.206,0.322-6.536,0.808-9.969,1.44
	C161.911,88.619,159.014,77.468,155.981,65.716z M420.801,151.432c-0.247,1.014-1.011,1.07-1.298,1.091
	c-20.717,1.515-40.605,6.155-53.205,12.413c-2.232,1.108-4.643,1.764-7.115,1.96c-0.101,0.003-0.202,0.006-0.303,0.013
	c-2.403,0.154-4.857-0.114-7.257-0.836c-23.406-7.035-60.861-9.602-87.792,1.384c-5.051,2.061-10.613,2.061-15.664,0
	c-13.027-5.314-28.514-7.457-43.686-7.457c-16.19,0-32.022,2.442-44.105,6.073c-2.397,0.72-4.846,0.989-7.244,0.836
	c-0.108-0.008-0.216-0.011-0.324-0.014c-2.469-0.197-4.877-0.852-7.106-1.959c-12.6-6.257-32.488-10.898-53.205-12.413
	c-0.287-0.021-1.051-0.077-1.298-1.091c-0.239-0.979,0.367-1.352,0.626-1.511c33.375-20.523,66.812-33.731,91.738-36.238
	c23.355-2.35,39.16-1.524,52.841,2.762c12.82,4.018,26.373,4.018,39.192,0c13.68-4.287,29.482-5.112,52.841-2.762
	c24.926,2.507,58.362,15.716,91.738,36.238C420.433,150.079,421.04,150.452,420.801,151.432z M281.118,335.115
	c5.994,0,11.728-2.559,15.73-7.022c4.002-4.463,5.926-10.439,5.276-16.399l-2.372-21.767c-1.039-9.528-9.051-16.714-18.635-16.714
	s-17.596,7.186-18.635,16.714l-2.372,21.766c-0.649,5.959,1.274,11.936,5.276,16.398
	C269.391,332.556,275.124,335.115,281.118,335.115z M275.023,313.32l2.372-21.766c0.207-1.904,1.808-3.34,3.723-3.34
	c1.915,0,3.516,1.436,3.723,3.339l2.372,21.766c0.191,1.754-0.353,3.444-1.53,4.758c-1.179,1.313-2.8,2.037-4.564,2.037
	c-1.765,0-3.386-0.724-4.563-2.038C275.376,316.764,274.832,315.074,275.023,313.32z M230.881,335.115
	c5.994,0,11.727-2.559,15.73-7.022c4.003-4.462,5.926-10.439,5.276-16.399l-2.372-21.767c-1.039-9.528-9.051-16.714-18.635-16.714
	s-17.596,7.186-18.635,16.714l-2.372,21.766c-0.649,5.959,1.273,11.936,5.276,16.399
	C219.152,332.555,224.887,335.115,230.881,335.115z M224.786,313.32l2.372-21.766c0.207-1.904,1.808-3.34,3.723-3.34
	c1.915,0,3.516,1.436,3.723,3.339l2.372,21.766c0.191,1.754-0.353,3.444-1.53,4.758c-1.179,1.313-2.8,2.037-4.564,2.037
	c-1.765,0-3.386-0.724-4.564-2.037C225.139,316.764,224.595,315.074,224.786,313.32z"/>
<g>
</g>
<g>
</g>
<g>
</g>
<g>
</g>
<g>
</g>
<g>
</g>
<g>
</g>
<g>
</g>
<g>
</g>
<g>
</g>
<g>
</g>
<g>
</g>
<g>
</g>
<g>
</g>
<g>
</g>
</svg>
